# xmcd
#
# Track frame offsets: 
#        150
#        12618
#        29213
#        47266
#        61188
#        76271
#        90355
#        109947
#        120386
#        136171
#        153063
#        167174
#        179908
#        191292
#        210949
#        225201
#        237133
#        252220
#        264540
#        276869
#        296871
#        308748
#
# Disc length: 4401 seconds
#
# Revision: 0
# Processed by: cddbd v1.4PL0 Copyright (c) Steve Scherf et al.
# Submitted via: ExactAudioCopy v0.95a3
#
DISCID=21112f16
DTITLE=Various Artist - Boot Scootin' Country Disc 3
DYEAR=1995
DGENRE=Country
TTITLE0=Somkin' Armadillos - Thump Factor
TTITLE1=Don McLean - Crying
TTITLE2=Mark Chesnutt - Goin' Through The Big D
TTITLE3=Vince Gill - A Little More Love
TTITLE4=Mark Collie - Hard Lovin' Woman
TTITLE5=Alan Jackson - Chasin' That Neon Rainbow
TTITLE6=Trisha Yearwood - How Do I Live
TTITLE7=George Strait - Heartland
TTITLE8=Holly Dunn - Daddy's Hand
TTITLE9=Pam Tillis - Blue Rose Is
TTITLE10=Trace Adkins - I Left Something Turned On At Home
TTITLE11=Lynn Anderson - Rose Garden
TTITLE12=David Lee Murphy - Out With A Bang
TTITLE13=Kenny Rogers - Through The Years
TTITLE14=Tracy Lawrence - Alibis
TTITLE15=Garth Brooks - Two Of A Kind, Workin' On A Full House
TTITLE16=Anne Murray - Could I Have This Dance
TTITLE17=Tanya Tucker - It's A Little Too Late
TTITLE18=Eddy Arnold - Make The World Go Away
TTITLE19=Toby Keith - A Little Less Talk And A Lot More Action
TTITLE20=Willie Nelson - On The Road Again
TTITLE21=Mark Chesnutt - Goin' Through The Big D (Best Mix)
EXTD=
EXTT0=
EXTT1=
EXTT2=
EXTT3=
EXTT4=
EXTT5=
EXTT6=
EXTT7=
EXTT8=
EXTT9=
EXTT10=
EXTT11=
EXTT12=
EXTT13=
EXTT14=
EXTT15=
EXTT16=
EXTT17=
EXTT18=
EXTT19=
EXTT20=
EXTT21=
PLAYORDER=
